PathFileType	4	(X/Y/Z)	OpenSim_Sub10_CSStiffKnee_Gyro.trc
DataRate	CameraRate	NumFrames	NumMarkers	Units	OrigDataRate	OrigDataStartFrame	OrigNumFrames
100	100	27	8	m	100	1	8174
Frame#	Time	torso_imu_offset_imu	pelvis_imu_offset_imu	tibia_r_imu_offset_imu	femur_r_imu_offset_imu	tibia_l_imu_offset_imu	femur_l_imu_offset_imu	toes_r_imu_offset_imu	toes_l_imu_offset_imu
				X1	Y1	Z1	X2	Y2	Z2	X3	Y3	Z3	X4	Y4	Z4	X5	Y5	Z5	X6	Y6	Z6	X7	Y7	Z7	X8		Y8	Z8	

1	0	-0.04741334	-0.01452568	-0.01908208	-0.03772619	0.00036141	-0.01184633	-0.04520020	0.04131097	0.00317218	-0.02088005	0.00767132	0.03005723	0.01302013	-0.02789690	-0.01914236	-0.00005029	-0.03765297	-0.03225810	0.01260572	0.02327732	-0.01048964	-0.00060538	0.01436272	-0.00385846
2	0.01000000	-0.04798318	-0.00636969	-0.01461534	-0.03209016	-0.00073844	-0.01187830	-0.04276443	0.03275384	0.00414191	-0.03669498	-0.00963220	0.01972208	0.00304547	-0.02834192	-0.02110812	0.00735942	-0.03866537	-0.02634956	0.00919960	0.02483409	-0.00705705	-0.00124277	0.01288443	-0.00221930
3	0.02000000	-0.04412562	-0.00451813	-0.01084424	-0.02739249	0.00023234	-0.01275184	-0.03000454	0.02525722	0.00538730	-0.04510741	-0.01049263	0.00690447	-0.00225400	-0.02600181	-0.02858583	0.01487421	-0.03275090	-0.02047524	0.00947287	0.02125759	-0.00475097	-0.00086925	0.01630277	-0.00340704
4	0.03000000	-0.05079208	-0.00701526	-0.01709048	-0.01673198	-0.00027969	-0.01930486	-0.01560136	0.02953782	0.00781028	-0.05673322	-0.00049709	0.00279386	-0.01369069	-0.02551246	-0.02788071	0.00892189	-0.03378840	-0.01582503	0.00367543	0.02430226	-0.00268285	-0.00348131	0.01495476	0.00077082
5	0.04000000	-0.05638498	-0.01347753	-0.01869261	-0.00899880	-0.00640495	-0.01694019	0.00107844	0.03157280	0.00813280	-0.06285373	0.00295941	0.00666791	-0.01232345	-0.02792108	-0.02562848	0.00812849	-0.02739098	-0.01187802	0.00506376	0.02436018	-0.00066743	-0.00151992	0.01530556	0.00388369
6	0.05000000	-0.05668025	-0.01726640	-0.01765627	-0.00608843	-0.00989552	-0.01848264	-0.00314927	0.02254716	0.00730771	-0.06389019	-0.00109040	0.01611892	-0.01858507	-0.02561490	-0.03588362	0.00315497	-0.02557484	-0.01000503	0.00446127	0.02169281	0.00142261	-0.00099131	0.01934582	0.00524586
7	0.06000000	-0.05276739	-0.01418060	-0.01632910	-0.00381782	-0.01657815	-0.01946080	-0.01137891	0.01491054	0.00625893	-0.07167024	-0.01826138	0.02068039	-0.02063090	-0.02471796	-0.03712485	-0.00498495	-0.03531295	-0.00710950	0.00681206	0.02466571	0.00032112	-0.00066620	0.02303649	0.00439570
8	0.07000000	-0.05096599	-0.01655062	-0.01459897	-0.00824970	-0.02013934	-0.01504120	-0.02090713	0.01041560	0.00423803	-0.07691939	-0.02655196	0.02402513	-0.00226175	-0.02307954	-0.03296292	-0.01617471	-0.04139264	-0.00495947	0.00836092	0.03025996	-0.00271154	-0.00021164	0.02505590	0.00423171
9	0.08000000	-0.04881539	-0.01393551	-0.01085716	-0.01457658	-0.01721385	-0.01383901	-0.04777969	0.00067334	-0.00109685	-0.08239540	-0.03170351	0.02283791	0.00417394	-0.02620161	-0.03155940	-0.03566179	-0.04484939	-0.00379516	0.00946182	0.03166409	-0.00199268	0.00025829	0.02644451	0.00873137
10	0.09000000	-0.04083621	-0.00775349	-0.00699291	-0.01975758	-0.01262546	-0.01162240	-0.08240766	-0.01953730	-0.00994955	-0.07684257	-0.05721116	0.01631363	-0.01261904	-0.03251277	-0.03427170	-0.04280194	-0.04606075	-0.00538968	0.00506008	0.02922344	-0.00100231	-0.00177305	0.02633983	0.00897686
11	0.10000000	-0.03582162	-0.00346706	-0.00660713	-0.02703679	-0.01100787	-0.01562370	-0.10470870	-0.03519317	-0.01644510	-0.06895592	-0.08610821	0.01476773	-0.02329333	-0.02849536	-0.03511546	-0.05365791	-0.04381525	-0.00786131	0.00164698	0.02689443	0.00082986	0.00287400	0.02835207	0.00838276
12	0.11000000	-0.03738619	-0.00295223	-0.00331520	-0.03703383	-0.01011488	-0.01462568	-0.10228910	-0.04284681	-0.02153862	-0.06537117	-0.09001091	0.00657533	-0.01916629	-0.01867766	-0.03159989	-0.06829207	-0.03527116	-0.00575393	0.00112870	0.02907563	0.00271123	-0.00050326	0.02988198	0.00773001
13	0.12000000	-0.03021262	0.00389617	0.00082530	-0.04019323	-0.00971185	-0.01783329	-0.09926712	-0.05321226	-0.03103536	-0.04989130	-0.07352448	0.00747756	-0.02908422	-0.01458644	-0.02222905	-0.07634323	-0.03076998	-0.00244423	0.00320361	0.03171625	0.00251160	0.00092451	0.02850484	0.00294875
14	0.13000000	-0.02589586	0.00471286	-0.00006986	-0.03519011	-0.00609966	-0.02517169	-0.08591622	-0.06366947	-0.02850403	-0.01979882	-0.06082032	0.00917248	-0.04263504	-0.01083809	-0.01490011	-0.08171479	-0.03393930	-0.00591375	0.00185106	0.03476607	0.00308266	-0.00244729	0.02797701	0.00077727
15	0.14000000	-0.02165611	0.00647586	0.00258405	-0.03305264	-0.00900861	-0.02342830	-0.06601737	-0.07384242	-0.02443856	0.02090600	-0.04416854	0.00876560	-0.04181707	-0.01212972	-0.01281383	-0.08431674	-0.03477914	-0.00927248	0.00552778	0.04088236	0.00360264	-0.00247202	0.03127002	0.00159733
16	0.15000000	-0.01887367	0.01382558	0.00497589	-0.03563294	-0.00733942	-0.02777341	-0.06009690	-0.08063041	-0.02820327	0.05067000	-0.03986744	0.01107918	-0.03799650	-0.00359210	-0.00745006	-0.07864509	-0.03427292	-0.01554995	0.00507563	0.04572158	0.00437078	-0.00043297	0.03000454	0.00109398
17	0.16000000	-0.01711496	0.01451812	0.00229704	-0.04089814	0.00031713	-0.02986384	-0.05165728	-0.08689692	-0.02451936	0.05032663	-0.04981277	0.00586299	-0.03444813	0.00247110	-0.00192480	-0.06233820	-0.03486692	-0.02550765	-0.00092365	0.04396264	0.00582335	-0.00351403	0.02737515	-0.00086558
18	0.17000000	-0.01581240	0.01437018	0.00377714	-0.04280472	0.00943170	-0.03005258	-0.03798727	-0.08786399	-0.01332862	0.03259481	-0.05324496	-0.00106246	-0.03346025	-0.00296730	0.00153503	-0.03696596	-0.02989715	-0.03299898	0.00163760	0.03871181	0.00646442	-0.00157206	0.02734248	-0.00191890
19	0.18000000	-0.01270213	0.01203937	0.00346576	-0.04311975	0.01738936	-0.03037349	-0.02190465	-0.07763274	-0.00792262	0.01947154	-0.04687586	-0.00784197	-0.02882645	-0.00411527	0.00594939	-0.01822133	-0.01636340	-0.03556929	-0.00526316	0.03532934	0.01198604	-0.00300545	0.02671798	-0.00163023
20	0.19000000	-0.01277807	0.00802738	-0.00199368	-0.04814484	0.01642980	-0.03143128	-0.00509595	-0.06670744	-0.00248763	-0.00080933	-0.02355762	-0.01140583	-0.01669212	0.00158378	0.00692298	-0.00674217	-0.00442592	-0.03635209	-0.00928770	0.02689442	0.01577727	-0.00092986	0.02170827	0.00189312
21	0.20000000	-0.01141403	0.00504957	0.00099019	-0.04812643	0.01017887	-0.02985920	-0.01313059	-0.06122952	-0.00523434	-0.00822920	0.00648027	-0.00494163	0.00262625	0.00438427	0.00615914	0.00492800	-0.00053117	-0.03527754	-0.00792403	0.02660335	0.01825271	-0.00039526	0.02036034	-0.00388895
22	0.21000000	-0.00792455	0.00241940	0.00533313	-0.05127355	-0.00116400	-0.02498345	-0.02926449	-0.05479166	-0.00581616	-0.00601362	0.03223874	0.01205429	0.01473265	0.00840440	0.00394924	0.00306199	0.00090026	-0.03209694	-0.00821426	0.02593854	0.01647145	-0.00407200	0.01831112	-0.00280319
23	0.22000000	-0.00585686	0.00372651	0.00618438	-0.05325868	-0.00527551	-0.02537469	-0.04248409	-0.05188283	-0.01077575	-0.00003931	0.04006812	0.02848343	0.02840064	0.00697191	0.00456146	0.00072805	0.00066110	-0.02852278	-0.00564272	0.02107335	0.01381944	-0.00136431	0.01513697	0.00205447
24	0.23000000	0.00096183	0.00200805	0.00416449	-0.06117032	-0.00751625	-0.02681393	-0.05380776	-0.05092284	-0.01810591	0.00986339	0.02609659	0.03997306	0.04661181	0.00490285	0.00682673	0.00847097	-0.00060360	-0.02090807	-0.00402826	0.02298478	0.01542112	0.00292834	0.01417749	-0.00078560
25	0.24000000	0.01065950	0.00232407	0.00699731	-0.07035207	-0.01320104	-0.02303987	-0.04653458	-0.04732587	-0.02698802	0.01065538	-0.00047861	0.04591135	0.04562021	0.00884716	0.00436594	0.01668896	-0.00092085	-0.01554176	-0.00667991	0.02298543	0.01247561	0.00352425	0.01267224	-0.00181943
26	0.25000000	0.01850700	0.00097163	0.00964948	-0.07064485	-0.01872326	-0.02497526	-0.03021423	-0.04445484	-0.03870791	-0.00711959	-0.01525210	0.04108018	0.04205598	0.01444312	-0.00011026	0.02470760	0.00065662	-0.01249487	-0.00483048	0.02574504	0.00859177	0.00222893	0.01168767	-0.00366728
27	0.26000000	0.02227151	0.00092154	0.01212189	-0.07018722	-0.02076763	-0.02837392	-0.01338016	-0.03637205	-0.04334619	-0.02435422	-0.01354912	0.03556099	0.03814349	0.01405053	-0.00137886	0.01808069	-0.00205210	-0.00463763	0.00363995	0.02329514	0.00791629	0.00500357	0.01112861	-0.00250687
